<svg xmlns="http://www.w3.org/2000/svg" xmlns:xlink="http://www.w3.org/1999/xlink" width="60.901" height="62.761" viewBox="0 0 60.901 62.761"><defs><linearGradient id="a" x1="0.585" y1="1.045" x2="0.585" y2="-0.02" gradientUnits="objectBoundingBox"><stop offset="0" stop-color="#ffe37b"/><stop offset="1" stop-color="#ffbe1b"/></linearGradient><linearGradient id="b" x1="0.565" y1="0.98" x2="0.565" y2="0.003" xlink:href="#a"/><linearGradient id="c" x1="0.357" y1="1.016" x2="0.357" y2="-0.004" xlink:href="#a"/><linearGradient id="d" x1="0.477" y1="0.989" x2="0.477" y2="-0.014" xlink:href="#a"/><linearGradient id="e" x1="0.705" y1="1.035" x2="0.705" y2="-0.039" xlink:href="#a"/></defs><g transform="translate(-970 -2146)"><g transform="translate(970 2146)"><path d="M-222.42,1278.415l.411.1-.411.1a6.734,6.734,0,0,0-4.893,4.892l-.1.412-.1-.412a6.73,6.73,0,0,0-4.893-4.892l-.41-.1.41-.1a6.728,6.728,0,0,0,4.893-4.892l.1-.41.1.41a6.731,6.731,0,0,0,4.893,4.892Z" transform="translate(282.178 -1267.645)" fill="#9f7eed"/><path d="M-232.287,1271.826l.22.056-.22.057a3.612,3.612,0,0,0-2.628,2.628l-.056.221-.056-.221a3.612,3.612,0,0,0-2.629-2.628l-.219-.057.219-.056a3.614,3.614,0,0,0,2.629-2.628l.056-.22.056.22a3.615,3.615,0,0,0,2.628,2.628Z" transform="translate(282.033 -1267.764)" fill="#9f7eed"/><path d="M-271.342,1304.84l.375.094-.375.094a6.117,6.117,0,0,0-4.447,4.448l-.094.374-.094-.374a6.118,6.118,0,0,0-4.449-4.448l-.373-.094.373-.094a6.122,6.122,0,0,0,4.449-4.448l.094-.372.094.372a6.121,6.121,0,0,0,4.447,4.448Z" transform="translate(280.799 -1266.872)" fill="#5e42a6"/><path d="M-221.679,1316.99l.3.076-.3.076a4.879,4.879,0,0,0-3.549,3.547l-.074.3-.075-.3a4.876,4.876,0,0,0-3.55-3.547l-.3-.076.3-.076a4.879,4.879,0,0,0,3.55-3.549l.075-.3.074.3a4.883,4.883,0,0,0,3.549,3.549Z" transform="translate(282.281 -1266.495)" fill="#5e42a6"/><path d="M-240.14,1289.926v0Z" transform="translate(281.968 -1267.162)" fill="#fff"/><path d="M-238.314,1287.51a1.053,1.053,0,0,0-.753-.238c-.433,3.127-.736,4.341-.736,4.341l-.028-.1c.035.991.064,1.88.084,2.611a.961.961,0,0,0,.609-.063c.659-.323,1.263-2.918,1.484-3.757A2.588,2.588,0,0,0-238.314,1287.51Z" transform="translate(281.977 -1267.238)" fill="#ffbe1b"/><path d="M-240.1,1290.158l0,.011Z" transform="translate(281.969 -1267.155)" fill="url(#a)"/><path d="M-240.225,1289.392l0,.025Z" transform="translate(281.965 -1267.177)" fill="url(#b)"/><path d="M-240.367,1288.191l0,.026Z" transform="translate(281.961 -1267.212)" fill="url(#c)"/><path d="M-240.337,1288.5l0,.038Z" transform="translate(281.962 -1267.203)" fill="url(#d)"/><path d="M-240.263,1289.12v0Z" transform="translate(281.964 -1267.185)" fill="url(#e)"/><path d="M-265.375,1293.523s-.658-2.579-.892-4.283a19.534,19.534,0,0,0-.693-1.969,1.05,1.05,0,0,0-.617.239,2.589,2.589,0,0,0-.66,2.792c.221.839.825,3.434,1.485,3.757a1.49,1.49,0,0,0,1.382-.287c0-.095,0-.189,0-.286s.055-.365.1-.771h0C-265.329,1293.225-265.375,1293.523-265.375,1293.523Z" transform="translate(281.156 -1267.238)" fill="#ffbe1b"/><path d="M-246.072,1306.314a9.167,9.167,0,0,1-.4-2.183,32.787,32.787,0,0,1-3.109,1.581,9.9,9.9,0,0,1-5.158,0c-.835-.389-1.929-.96-3.026-1.6a9.218,9.218,0,0,1-.4,2.208c-.271.847-1.96,1.54-3.82,2.227a12.774,12.774,0,0,0,9.933,5.023,12.357,12.357,0,0,0,9.914-5.023C-244.13,1307.915-245.755,1307.3-246.072,1306.314Z" transform="translate(281.34 -1266.754)" fill="#ffbe1b"/><path d="M-239.729,1286.215a30.738,30.738,0,0,0,.013-4.3c-.172-1.088-.744-2.865-2.061-2.978,0,0-5.867,6.575-18.446,5.749a15.565,15.565,0,0,1-3.272-.55,3.774,3.774,0,0,0-1.6,3.076,38.863,38.863,0,0,1-.361,6.509c0,.529-.006,1.036-.006,1.506,0,3.342,2.06,5.5,5.114,7.833a34.878,34.878,0,0,0,5.707,3.369,9.9,9.9,0,0,0,5.158,0,23.886,23.886,0,0,0,5.033-2.895c2.834-2.216,5.469-4.727,5.469-7.547,0-.711-.045-2.281-.115-4.245A21.616,21.616,0,0,1-239.729,1286.215Z" transform="translate(281.24 -1267.478)" fill="#ffe37b"/><path d="M-238.927,1273.515a5.819,5.819,0,0,0-5.271-2.423,8.567,8.567,0,0,0-7.784-3.272c-6.036.348-6.1,3.515-10.721,4.9s-6.476-2.261-8.329-1.008-.76,6.017,2.991,9.967c-.311,3.252,1.772,7.361,1.876,8.12.234,1.7.892,4.283.892,4.283a38.686,38.686,0,0,0,.367-6.546,3.774,3.774,0,0,1,1.6-3.076,15.574,15.574,0,0,0,3.272.551c12.579.826,18.446-5.749,18.446-5.749,1.317.113,1.889,1.89,2.061,2.978a30.732,30.732,0,0,1-.013,4.295,21.426,21.426,0,0,0,.664,5.638s.343-1.372.82-4.962C-237.787,1285.161-235.079,1278.2-238.927,1273.515Z" transform="translate(281.054 -1267.798)" fill="#312450"/><path d="M-235.284,1310.357l-6.5-1.96a12.354,12.354,0,0,1-9.928,5.045,12.79,12.79,0,0,1-9.966-5.07l-6.774,2a8.489,8.489,0,0,0-6.078,8.14s-1.242,7.508,2.611,9.244,36.624,2.578,40.417,0,2.258-9.277,2.258-9.277-2.453-7.047-6.038-8.126Z" transform="translate(281.002 -1266.632)" fill="#5e42a6"/></g></g></svg>