<svg xmlns="http://www.w3.org/2000/svg" width="122" height="122" viewBox="0 0 122 122"><g transform="translate(-1037 -1643)"><circle cx="61" cy="61" r="61" transform="translate(1037 1643)" fill="#5e42a6"/><path d="M70.675,56.544c1.1-1.9,2.871-1.9,3.97,0l6.841,12.01c1.1,1.9.2,3.446-2,3.446H65.706c-2.172,0-3.071-1.548-2-3.446ZM57.441,33.423c1.1-1.9,2.846-1.9,3.945,0l1.523,2.747,3.6,6.317a6.563,6.563,0,0,1,0,5.718L54.445,69.1A6.341,6.341,0,0,1,49.5,72H39.488c-2.2,0-3.1-1.523-2-3.446Z" transform="translate(1038.511 1652)" fill="#fff"/></g></svg>