<svg xmlns="http://www.w3.org/2000/svg" width="122" height="122" viewBox="0 0 122 122"><g transform="translate(-761 -1643)"><circle cx="61" cy="61" r="61" transform="translate(761 1643)" fill="#5e42a6"/><path d="M27.731,23.214l4.532,4.531L20,40.01,7.733,27.746l4.532-4.532L20,30.987l7.732-7.773Zm7.735-7.733,4.569,4.531-4.529,4.531-4.532-4.531ZM20,15.48l4.531,4.491L20,24.5l-4.531-4.492L20,15.482Zm-15.469,0,4.494,4.531L4.534,24.5,0,20.011,4.531,15.48ZM20,.01,32.265,12.237l-4.532,4.529L20,9.033l-7.732,7.773L7.735,12.276,20,.012Z" transform="translate(801.982 1683.99)" fill="#fff"/></g></svg>