<svg xmlns="http://www.w3.org/2000/svg" width="86.636" height="80" viewBox="0 0 86.636 80"><g transform="translate(561.346 -1366.597)"><path d="M-497.872,1416.312l.432.109-.432.107a7.075,7.075,0,0,0-5.141,5.141l-.108.433-.108-.433a7.077,7.077,0,0,0-5.141-5.141l-.432-.107.432-.109a7.078,7.078,0,0,0,5.141-5.14l.108-.434.108.434a7.076,7.076,0,0,0,5.141,5.14Z" transform="translate(9.933 8.345)" fill="#9f7eed"/><path d="M-518.248,1372.632l.466.118-.466.117a7.66,7.66,0,0,0-5.571,5.572l-.118.466-.118-.466a7.659,7.659,0,0,0-5.57-5.572l-.466-.117.466-.118a7.656,7.656,0,0,0,5.57-5.569l.118-.466.118.466a7.657,7.657,0,0,0,5.571,5.569Z" transform="translate(5.909 0)" fill="#9f7eed"/><path d="M-544.018,1421.454l.627.159-.627.155a10.3,10.3,0,0,0-7.495,7.5l-.158.627-.159-.627a10.3,10.3,0,0,0-7.491-7.5l-.629-.155.629-.159a10.3,10.3,0,0,0,7.491-7.492l.159-.629.158.629a10.3,10.3,0,0,0,7.495,7.492Z" transform="translate(0.264 8.835)" fill="#fff"/><path d="M-486.849,1410.622l.513.128-.513.129a8.408,8.408,0,0,0-6.114,6.114l-.128.512-.13-.512a8.4,8.4,0,0,0-6.113-6.114l-.511-.129.511-.128a8.407,8.407,0,0,0,6.113-6.113l.13-.512.128.512a8.411,8.411,0,0,0,6.114,6.113Z" transform="translate(11.626 7.07)" fill="#fff"/><path d="M-548.506,1399.437a9.153,9.153,0,0,1,.018-2.452l-4.655.109a5.014,5.014,0,0,1,.056,2.45Z" transform="translate(1.551 5.745)" fill="#fff"/><path d="M-540.219,1391.149l.108-4.581a5,5,0,0,1-2.451-.055l-.108,4.654A9.243,9.243,0,0,1-540.219,1391.149Z" transform="translate(3.53 3.765)" fill="#fff"/><path d="M-533.876,1399.245h12.8a9.24,9.24,0,0,1,.083-2.449h-12.965A9.346,9.346,0,0,1-533.876,1399.245Z" transform="translate(5.178 5.709)" fill="#fff"/><path d="M-513.934,1391.167l-.111-4.654a5,5,0,0,1-2.449.055l.108,4.581A9.253,9.253,0,0,1-513.934,1391.167Z" transform="translate(8.479 3.765)" fill="#fff"/><path d="M-503.129,1397.094l-4.655-.109a9.2,9.2,0,0,1,.019,2.452l4.581.108A4.985,4.985,0,0,1-503.129,1397.094Z" transform="translate(10.125 5.745)" fill="#fff"/><path d="M-522.446,1415.347l5.656-9.8a9.165,9.165,0,0,1-2.185-1.116l-5.369,9.3A9.237,9.237,0,0,1-522.446,1415.347Z" transform="translate(6.995 7.153)" fill="#fff"/><path d="M-531.469,1413.735l-5.37-9.3a9.153,9.153,0,0,1-2.187,1.115l5.659,9.8A9.209,9.209,0,0,1-531.469,1413.735Z" transform="translate(4.22 7.153)" fill="#fff"/><path d="M-534.085,1423.5l-3.316,3.164a4.99,4.99,0,0,1,1.693,1.771l3.37-3.213A9.248,9.248,0,0,1-534.085,1423.5Z" transform="translate(4.527 10.757)" fill="#fff"/><path d="M-523.869,1425.222l3.369,3.213a5,5,0,0,1,1.693-1.771l-3.315-3.164A9.248,9.248,0,0,1-523.869,1425.222Z" transform="translate(7.085 10.757)" fill="#fff"/><path d="M-511.635,1430.49a4.967,4.967,0,0,1-4.97,4.968,4.967,4.967,0,0,1-4.97-4.968,4.969,4.969,0,0,1,4.97-4.969A4.969,4.969,0,0,1-511.635,1430.49Z" transform="translate(7.518 11.139)" fill="#fff"/><path d="M-543.8,1430.49a4.967,4.967,0,0,0,4.968,4.968,4.967,4.967,0,0,0,4.97-4.968,4.968,4.968,0,0,0-4.97-4.969A4.969,4.969,0,0,0-543.8,1430.49Z" transform="translate(3.318 11.139)" fill="#fff"/><path d="M-517.856,1420.226a9.188,9.188,0,0,1-9.189,9.189,9.187,9.187,0,0,1-9.189-9.189,9.188,9.188,0,0,1,9.189-9.189A9.189,9.189,0,0,1-517.856,1420.226Z" transform="translate(4.747 8.401)" fill="#9f7eed"/><path d="M-537.149,1379.766a4.967,4.967,0,0,0-7.027,0,4.969,4.969,0,0,0,0,7.027,4.967,4.967,0,0,0,7.027,0A4.969,4.969,0,0,0-537.149,1379.766Z" transform="translate(2.971 2.214)" fill="#fff"/><path d="M-559.891,1402.507a4.972,4.972,0,0,1,0-7.028,4.97,4.97,0,0,1,7.028,0,4.97,4.97,0,0,1,0,7.028A4.97,4.97,0,0,1-559.891,1402.507Z" transform="translate(0 5.185)" fill="#fff"/><path d="M-533.619,1393.041a9.188,9.188,0,0,0-12.994,0,9.187,9.187,0,0,0,0,12.995,9.188,9.188,0,0,0,13,0A9.188,9.188,0,0,0-533.619,1393.041Z" transform="translate(2.276 4.49)" fill="#9f7eed"/><path d="M-518.282,1379.766a4.967,4.967,0,0,1,7.027,0,4.967,4.967,0,0,1,0,7.027,4.967,4.967,0,0,1-7.027,0A4.967,4.967,0,0,1-518.282,1379.766Z" transform="translate(7.865 2.214)" fill="#fff"/><path d="M-495.541,1402.507a4.969,4.969,0,0,0,0-7.028,4.97,4.97,0,0,0-7.028,0,4.971,4.971,0,0,0,0,7.028A4.97,4.97,0,0,0-495.541,1402.507Z" transform="translate(10.836 5.185)" fill="#fff"/><path d="M-520.471,1393.041a9.19,9.19,0,0,1,13,0,9.189,9.189,0,0,1,0,12.995,9.189,9.189,0,0,1-13,0A9.191,9.191,0,0,1-520.471,1393.041Z" transform="translate(7.218 4.49)" fill="#9f7eed"/></g></svg>