<svg xmlns="http://www.w3.org/2000/svg" width="90.587" height="80" viewBox="0 0 90.587 80"><g transform="translate(392.448 -1400.303)"><path d="M-318.567,1431.916l.475.119-.475.119a7.764,7.764,0,0,0-5.645,5.648l-.12.473-.119-.473a7.769,7.769,0,0,0-5.649-5.648l-.473-.119.473-.119a7.771,7.771,0,0,0,5.649-5.646l.119-.473.12.473a7.766,7.766,0,0,0,5.645,5.646Z" transform="translate(16.231 6.688)" fill="#9f7eed"/><path d="M-361.031,1459.136l.572.144-.572.144a9.36,9.36,0,0,0-6.809,6.809l-.144.572-.143-.572a9.364,9.364,0,0,0-6.81-6.809l-.571-.144.571-.144a9.364,9.364,0,0,0,6.81-6.808l.143-.57.144.57a9.361,9.361,0,0,0,6.809,6.808Z" transform="translate(4.444 13.498)" fill="#9f7eed"/><path d="M-373.719,1407.118l.529.133-.529.133a8.649,8.649,0,0,0-6.289,6.29l-.131.528-.134-.528a8.647,8.647,0,0,0-6.289-6.29l-.526-.133.526-.133a8.647,8.647,0,0,0,6.289-6.288l.134-.528.131.528a8.649,8.649,0,0,0,6.289,6.288Z" transform="translate(1.406)" fill="#9f7eed"/><path d="M-365.385,1409.575l.337.086-.337.085a5.516,5.516,0,0,0-4.013,4.012l-.086.337-.083-.337a5.519,5.519,0,0,0-4.014-4.012l-.336-.085.336-.086a5.52,5.52,0,0,0,4.014-4.012l.083-.337.086.337a5.516,5.516,0,0,0,4.013,4.012Z" transform="translate(4.861 1.291)" fill="#9f7eed"/><path d="M-331,1420.453a10.968,10.968,0,0,1-6.692-6.927l-45.1,6.915v.012Z" transform="translate(2.531 3.469)" fill="#5e42a6"/><path d="M-388.13,1426.919a5.519,5.519,0,0,1,5.514-5.511h2.348v-.012l45.1-6.915a10.968,10.968,0,0,0,6.692,6.927h5.592a5.482,5.482,0,0,1,1.525.219l-1.084-7.065a5.518,5.518,0,0,0-6.284-4.614L-387.77,1419a5.523,5.523,0,0,0-4.614,6.285l4.123,26.889a5.489,5.489,0,0,0,.131.616Z" transform="translate(0 2.513)" fill="#9f7eed"/><path d="M-338.477,1450.951a2.661,2.661,0,0,1-2.855-2.408v-1.023a2.66,2.66,0,0,1,2.855-2.407,2.661,2.661,0,0,1-2.855-2.408v-1.023a2.66,2.66,0,0,1,2.855-2.408H-322.5v-8.425a10.958,10.958,0,0,1-9.06-9.06H-377.19a10.957,10.957,0,0,1-9.06,9.06v13.1a10.958,10.958,0,0,1,9.06,9.061H-341.3A2.746,2.746,0,0,1-338.477,1450.951Z" transform="translate(1.626 5.636)" fill="#9f7eed"/><path d="M-346.533,1436.642a11.976,11.976,0,0,1-11.976,11.978,11.978,11.978,0,0,1-11.978-11.978,11.977,11.977,0,0,1,11.978-11.977A11.976,11.976,0,0,1-346.533,1436.642Z" transform="translate(5.761 6.391)" fill="#5e42a6"/><path d="M-339.08,1457.239a2.822,2.822,0,0,1-.312-.163l-.037-.023c-.085-.053-.165-.109-.244-.168l-.043-.034a2.5,2.5,0,0,1-.446-.457l-.042-.058a2.162,2.162,0,0,1-.138-.221.4.4,0,0,1-.026-.046,2.085,2.085,0,0,1-.12-.276l-.018-.062a1.881,1.881,0,0,1-.059-.235c-.006-.026-.011-.054-.015-.081a2.233,2.233,0,0,1-.025-.307v-1.023c0-.064.005-.129.011-.192s.013-.106.021-.159h-35.891a10.958,10.958,0,0,0-9.06-9.061v-13.1a10.957,10.957,0,0,0,9.06-9.06h45.631a10.958,10.958,0,0,0,9.06,9.06V1440h3.505v-15.477a5.519,5.519,0,0,0-5.513-5.511h-59.735a5.519,5.519,0,0,0-5.514,5.511v27.2a5.519,5.519,0,0,0,5.514,5.513h44.433Z" transform="translate(0.897 4.908)" fill="#fff"/><path d="M-360.314,1444.339v-1.486a8.833,8.833,0,0,1-5.005-2.218l1.486-1.77a7.057,7.057,0,0,0,3.519,1.77v-3.946a8.317,8.317,0,0,1-3.367-1.444,3.269,3.269,0,0,1-1.068-2.656,3.714,3.714,0,0,1,1.231-2.878,4.981,4.981,0,0,1,3.2-1.221v-1.016h1.3v1.038a8.495,8.495,0,0,1,4.233,1.525l-1.323,1.872a6.572,6.572,0,0,0-2.91-1.18v3.824h.062a8.276,8.276,0,0,1,3.439,1.486,3.373,3.373,0,0,1,1.1,2.717,3.691,3.691,0,0,1-1.261,2.9,5.242,5.242,0,0,1-3.338,1.221v1.466Zm-1.434-13.132a1.458,1.458,0,0,0-.519,1.139,1.435,1.435,0,0,0,.408,1.078,4.1,4.1,0,0,0,1.545.764v-3.521A2.444,2.444,0,0,0-361.748,1431.207Zm4.282,8.919a1.46,1.46,0,0,0,.571-1.178,1.471,1.471,0,0,0-.447-1.13,4.422,4.422,0,0,0-1.67-.784v3.661A2.818,2.818,0,0,0-357.466,1440.126Z" transform="translate(7.117 7.128)" fill="#fff"/><path d="M-350.667,1448.321V1447.3a2.66,2.66,0,0,1,2.855-2.407h21.864a2.66,2.66,0,0,1,2.855,2.407v1.023a2.661,2.661,0,0,1-2.855,2.408h-21.864a2.661,2.661,0,0,1-2.855-2.408Z" transform="translate(10.96 11.697)" fill="#ddd"/><path d="M-350.667,1443.7v-1.023a2.66,2.66,0,0,1,2.855-2.407h21.864a2.66,2.66,0,0,1,2.855,2.407v1.023a2.661,2.661,0,0,1-2.855,2.408h-21.864a2.661,2.661,0,0,1-2.855-2.408Z" transform="translate(10.96 10.483)" fill="#5e42a6"/><path d="M-350.667,1439.071v-1.022a2.66,2.66,0,0,1,2.855-2.408h21.864a2.66,2.66,0,0,1,2.855,2.408v1.022a2.661,2.661,0,0,1-2.855,2.408h-21.864a2.661,2.661,0,0,1-2.855-2.408Z" transform="translate(10.96 9.27)" fill="#f4f4f4"/></g></svg>