<svg xmlns="http://www.w3.org/2000/svg" width="70.212" height="80" viewBox="0 0 70.212 80"><g transform="translate(477.104 -1496.549)"><path d="M-436.187,1566.519l.376.095-.376.093a6.14,6.14,0,0,0-4.462,4.463l-.094.375-.094-.375a6.141,6.141,0,0,0-4.464-4.463l-.372-.093.372-.095a6.139,6.139,0,0,0,4.464-4.462l.094-.375.094.375a6.138,6.138,0,0,0,4.462,4.462Z" transform="translate(2.018 4.182)" fill="#fff"/><path d="M-446.289,1568.892l.241.061-.241.06a3.919,3.919,0,0,0-2.849,2.85l-.061.24-.06-.24a3.922,3.922,0,0,0-2.85-2.85l-.239-.06.239-.061a3.92,3.92,0,0,0,2.85-2.85l.06-.238.061.238a3.917,3.917,0,0,0,2.849,2.85Z" transform="translate(1.59 4.447)" fill="#fff"/><path d="M-450.082,1501.131l.355.09-.355.088a5.816,5.816,0,0,0-4.228,4.227l-.088.354-.089-.354a5.812,5.812,0,0,0-4.229-4.227l-.353-.088.353-.09a5.813,5.813,0,0,0,4.229-4.227l.089-.355.088.355a5.817,5.817,0,0,0,4.228,4.227Z" transform="translate(1.158)" fill="#9f7eed"/><path d="M-462.2,1504l.238.06-.238.06a3.883,3.883,0,0,0-2.823,2.822l-.059.237-.061-.237a3.88,3.88,0,0,0-2.822-2.822l-.237-.06.237-.06a3.883,3.883,0,0,0,2.822-2.823l.061-.236.059.236A3.886,3.886,0,0,0-462.2,1504Z" transform="translate(0.572 0.282)" fill="#9f7eed"/><path d="M-410.937,1532.572l.329.081-.329.082a5.362,5.362,0,0,0-3.9,3.9l-.082.328-.081-.328a5.363,5.363,0,0,0-3.9-3.9l-.327-.082.327-.081a5.369,5.369,0,0,0,3.9-3.9l.081-.327.082.327a5.368,5.368,0,0,0,3.9,3.9Z" transform="translate(3.717 2.042)" fill="#5e42a6"/><path d="M-440.105,1530.081a17.777,17.777,0,0,0,.8-5.291A17.791,17.791,0,0,0-457.1,1507a17.791,17.791,0,0,0-17.792,17.792,17.792,17.792,0,0,0,17.792,17.792,17.719,17.719,0,0,0,7.5-1.661A17.836,17.836,0,0,1-440.105,1530.081Z" transform="translate(0.142 0.671)" fill="#fff"/><path d="M-444.01,1524.522a13.354,13.354,0,0,1-13.355,13.355,13.355,13.355,0,0,1-13.355-13.355,13.355,13.355,0,0,1,13.355-13.356A13.354,13.354,0,0,1-444.01,1524.522Z" transform="translate(0.41 0.938)" fill="#5e42a6"/><path d="M-416.287,1544.921a17.792,17.792,0,0,1-17.794,17.791,17.792,17.792,0,0,1-17.792-17.791,17.792,17.792,0,0,1,17.792-17.792A17.791,17.791,0,0,1-416.287,1544.921Z" transform="translate(1.62 1.964)" fill="#fff"/><path d="M-420.992,1544.653a13.355,13.355,0,0,1-13.356,13.355,13.356,13.356,0,0,1-13.355-13.355,13.355,13.355,0,0,1,13.355-13.355A13.354,13.354,0,0,1-420.992,1544.653Z" transform="translate(1.888 2.231)" fill="#5e42a6"/><path d="M-415.151,1521.995a1.1,1.1,0,0,0-1.473.486l-2.059,4.088a29.605,29.605,0,0,0-9.717-15.07,29.536,29.536,0,0,0-18.756-6.732,1.1,1.1,0,0,0-1.1,1.1,1.1,1.1,0,0,0,1.1,1.1,27.383,27.383,0,0,1,26.4,20.362l-4.382-2.137a1.1,1.1,0,0,0-1.466.505,1.1,1.1,0,0,0,.505,1.467l6.713,3.272a1.1,1.1,0,0,0,.479.111,1.1,1.1,0,0,0,.981-.6l3.259-6.468A1.1,1.1,0,0,0-415.151,1521.995Z" transform="translate(1.853 0.528)" fill="#9f7eed"/><path d="M-476.5,1546.7a1.1,1.1,0,0,0,1.473-.486l2.06-4.088a29.592,29.592,0,0,0,9.717,15.069,29.531,29.531,0,0,0,18.756,6.733,1.1,1.1,0,0,0,1.1-1.1,1.1,1.1,0,0,0-1.1-1.1,27.384,27.384,0,0,1-26.4-20.363l4.381,2.137a1.1,1.1,0,0,0,1.466-.505,1.1,1.1,0,0,0-.5-1.466l-6.713-3.273a1.1,1.1,0,0,0-.48-.112,1.1,1.1,0,0,0-.98.6l-3.259,6.468A1.1,1.1,0,0,0-476.5,1546.7Z" transform="translate(0 2.671)" fill="#9f7eed"/></g></svg>