<svg xmlns="http://www.w3.org/2000/svg" width="122" height="122" viewBox="0 0 122 122"><g transform="translate(-1313 -1643)"><circle cx="61" cy="61" r="61" transform="translate(1313 1643)" fill="#5e42a6"/><g transform="translate(1351.27 1684.1)"><path d="M34.421,12.126a3.024,3.024,0,0,0-2.849,0l-6.647,3.917-4.51,2.493-6.528,3.917a3.024,3.024,0,0,1-2.849,0l-5.1-3.086A2.893,2.893,0,0,1,4.51,16.873V10.939A2.928,2.928,0,0,1,5.935,8.446l5.1-2.967a3.024,3.024,0,0,1,2.849,0l5.1,3.086a2.893,2.893,0,0,1,1.424,2.493v3.917l4.51-2.611V8.327A2.928,2.928,0,0,0,23.5,5.835L14.006.256a3.024,3.024,0,0,0-2.849,0l-9.733,5.7A2.611,2.611,0,0,0,0,8.327V19.485a2.928,2.928,0,0,0,1.424,2.493l9.614,5.579a3.024,3.024,0,0,0,2.849,0l6.528-3.8,4.51-2.611,6.528-3.8a3.024,3.024,0,0,1,2.849,0l5.1,2.967a2.893,2.893,0,0,1,1.424,2.493v5.935a2.928,2.928,0,0,1-1.424,2.493L34.421,34.2a3.024,3.024,0,0,1-2.849,0l-5.1-2.967a2.893,2.893,0,0,1-1.424-2.493v-3.8l-4.51,2.611v3.917a2.928,2.928,0,0,0,1.424,2.493l9.614,5.579a3.024,3.024,0,0,0,2.849,0l9.614-5.579a2.893,2.893,0,0,0,1.424-2.493V20.2A2.928,2.928,0,0,0,44.036,17.7Z" fill="#fff"/></g></g></svg>