<svg xmlns="http://www.w3.org/2000/svg" xmlns:xlink="http://www.w3.org/1999/xlink" width="84.993" height="80" viewBox="0 0 84.993 80"><defs><linearGradient id="a" x1="0.498" y1="1.003" x2="0.498" y2="0.002" gradientUnits="objectBoundingBox"><stop offset="0" stop-color="#ffe37b"/><stop offset="1" stop-color="#ffbe1b"/></linearGradient><linearGradient id="b" x1="0.5" y1="1.005" x2="0.5" y2="0.003" xlink:href="#a"/><linearGradient id="c" x1="0.504" y1="0.99" x2="0.504" y2="-0.007" xlink:href="#a"/><linearGradient id="d" x1="0.502" y1="0.996" x2="0.502" y2="0.019" xlink:href="#a"/><linearGradient id="e" x1="0.501" y1="0.991" x2="0.501" y2="-0.006" xlink:href="#a"/><linearGradient id="f" x1="0.503" y1="1.005" x2="0.503" y2="-0.01" xlink:href="#a"/><linearGradient id="g" x1="0.502" y1="-0.01" x2="0.502" y2="1.005" xlink:href="#a"/><linearGradient id="h" x1="0.502" y1="0.021" x2="0.502" y2="0.992" xlink:href="#a"/></defs><g transform="translate(0)"><path d="M-286.575,1521.6l.178-.088Z" transform="translate(334.402 -1476.462)" fill="url(#a)"/><path d="M-285.83,1521.221l.158-.085Z" transform="translate(334.487 -1476.505)" fill="url(#b)"/><path d="M-288.2,1522.3l.139-.052Z" transform="translate(334.217 -1476.379)" fill="url(#c)"/><path d="M-291.574,1523.236c.042-.007.082-.016.124-.023C-291.492,1523.221-291.532,1523.23-291.574,1523.236Z" transform="translate(333.832 -1476.268)" fill="url(#d)"/><path d="M-289.28,1524.178a22.2,22.2,0,0,1-3.049.209,21.884,21.884,0,0,1-16.984-8.058,21.913,21.913,0,0,0-10.633,18.8,21.927,21.927,0,0,0,21.928,21.928,21.936,21.936,0,0,0,21.078-15.863A21.937,21.937,0,0,1-289.28,1524.178Z" transform="translate(330.594 -1477.054)" fill="#fff"/><path d="M-289,1522.582l.148-.05Z" transform="translate(334.126 -1476.346)" fill="url(#e)"/><path d="M-290.722,1523.06c.04-.009.079-.017.118-.027C-290.643,1523.043-290.682,1523.051-290.722,1523.06Z" transform="translate(333.929 -1476.289)" fill="url(#f)"/><path d="M-290.718,1523.06l.12-.028Z" transform="translate(333.929 -1476.289)" fill="url(#g)"/><path d="M-291.562,1523.234l.1-.019Z" transform="translate(333.833 -1476.268)" fill="url(#h)"/><path d="M-289.84,1523.774a22.2,22.2,0,0,1-3.049.209,21.825,21.825,0,0,1-12.788-4.114,16.459,16.459,0,0,0-9.362,14.853,16.46,16.46,0,0,0,16.46,16.461,16.463,16.463,0,0,0,16.2-13.573A21.873,21.873,0,0,1-289.84,1523.774Z" transform="translate(331.154 -1476.65)" fill="#5e42a6"/><path d="M-270.67,1501.186a22.013,22.013,0,0,0-3.046.211,22.388,22.388,0,0,1,.175,2.79,21.933,21.933,0,0,1-18.881,21.717,21.932,21.932,0,0,0,21.752,19.137,21.928,21.928,0,0,0,21.929-21.927A21.929,21.929,0,0,0-270.67,1501.186Z" transform="translate(333.735 -1478.781)" fill="#fff"/><path d="M-271.218,1506.094a16.525,16.525,0,0,0-3.043.286,21.948,21.948,0,0,1-13.358,17.508,16.456,16.456,0,0,0,16.4,15.125,16.46,16.46,0,0,0,16.461-16.458A16.462,16.462,0,0,0-271.218,1506.094Z" transform="translate(334.283 -1478.221)" fill="#5e42a6"/><path d="M-270.984,1506.125a21.927,21.927,0,0,1-21.929,21.928,21.926,21.926,0,0,1-21.927-21.928,21.926,21.926,0,0,1,21.927-21.928A21.927,21.927,0,0,1-270.984,1506.125Z" transform="translate(331.177 -1480.719)" fill="#fff"/><path d="M-277.01,1505.566a16.46,16.46,0,0,1-16.462,16.46,16.459,16.459,0,0,1-16.459-16.46,16.458,16.458,0,0,1,16.459-16.458A16.46,16.46,0,0,1-277.01,1505.566Z" transform="translate(331.737 -1480.16)" fill="#5e42a6"/><path d="M-269.473,1486.819l.445.111-.445.111a7.286,7.286,0,0,0-5.3,5.3l-.111.444-.111-.444a7.284,7.284,0,0,0-5.3-5.3l-.446-.111.446-.111a7.288,7.288,0,0,0,5.3-5.3l.111-.446.111.446a7.29,7.29,0,0,0,5.3,5.3Z" transform="translate(335.068 -1481.076)" fill="#9f7eed"/><path d="M-263.3,1493.715l.24.06-.24.06a3.916,3.916,0,0,0-2.846,2.848l-.06.238-.06-.238a3.914,3.914,0,0,0-2.847-2.848l-.24-.06.24-.06a3.915,3.915,0,0,0,2.847-2.847l.06-.24.06.24a3.916,3.916,0,0,0,2.846,2.847Z" transform="translate(336.367 -1479.986)" fill="#9f7eed"/><path d="M-319.262,1521.312l.406.1-.406.1a6.625,6.625,0,0,0-4.816,4.817l-.1.4-.1-.4a6.625,6.625,0,0,0-4.817-4.817l-.4-.1.4-.1a6.624,6.624,0,0,0,4.817-4.817l.1-.4.1.4a6.624,6.624,0,0,0,4.816,4.817Z" transform="translate(329.504 -1477.081)" fill="#9f7eed"/><path d="M-263.5,1547.945l.4.1-.4.1a6.468,6.468,0,0,0-4.7,4.7l-.1.395-.1-.395a6.469,6.469,0,0,0-4.7-4.7l-.394-.1.394-.1a6.464,6.464,0,0,0,4.7-4.7l.1-.4.1.4a6.462,6.462,0,0,0,4.7,4.7Z" transform="translate(335.894 -1474.028)" fill="#9f7eed"/><path d="M-294.144,1495.837l-9.217,9.217,9.217,9.216,9.216-9.216Zm.369,5.681,3.536,3.536-3.536,3.536Zm-.738,7.072-3.536-3.536,3.536-3.536Zm.738,1.045,4.58-4.581-4.58-4.58v-3.222l7.8,7.8-7.8,7.8Zm-.738-12.383v3.221l-4.58,4.581,4.58,4.581v3.221l-7.8-7.8Z" transform="translate(332.487 -1479.392)" fill="#fff"/><path d="M-299.437,1525.65l-9.216,9.216,9.216,9.217,9.217-9.217Zm.369,5.681,3.536,3.535-3.536,3.537Zm-.738,7.072-3.536-3.537,3.536-3.535Zm.738,1.044,4.581-4.58-4.581-4.581v-3.222l7.8,7.8-7.8,7.8Zm-.738-12.383v3.222l-4.58,4.58,4.58,4.581v3.222l-7.8-7.8Z" transform="translate(331.883 -1475.99)" fill="#fff"/><path d="M-271.927,1512.382l-9.217,9.217,9.217,9.216,9.216-9.216Zm.369,5.681,3.535,3.536-3.535,3.536Zm-.738,7.072-3.536-3.536,3.536-3.536Zm.738,1.045,4.58-4.581-4.58-4.58V1513.8l7.8,7.8-7.8,7.8Zm-.738-12.383v3.221l-4.581,4.581,4.581,4.581v3.221l-7.8-7.8Z" transform="translate(335.022 -1477.504)" fill="#fff"/></g></svg>