<svg xmlns="http://www.w3.org/2000/svg" width="63.008" height="80" viewBox="0 0 63.008 80"><g transform="translate(395.941 -1213.804)"><path d="M-386.458,1230.168l.362.09-.362.09a5.923,5.923,0,0,0-4.305,4.305l-.09.361-.09-.361a5.924,5.924,0,0,0-4.3-4.305l-.363-.09.363-.09a5.925,5.925,0,0,0,4.3-4.3l.09-.362.09.362a5.924,5.924,0,0,0,4.305,4.3Z" transform="translate(0.047 1.647)" fill="#5e42a6"/><path d="M-377.68,1220.2l.5.124-.5.124a8.117,8.117,0,0,0-5.9,5.9l-.123.495-.123-.495a8.117,8.117,0,0,0-5.9-5.9l-.5-.124.5-.124a8.117,8.117,0,0,0,5.9-5.9l.123-.5.123.5a8.117,8.117,0,0,0,5.9,5.9Z" transform="translate(0.805)" fill="#5e42a6"/><path d="M-339.742,1272.1l.431.109-.431.107a7.05,7.05,0,0,0-5.127,5.128l-.11.431-.108-.431a7.053,7.053,0,0,0-5.128-5.128l-.43-.107.43-.109a7.05,7.05,0,0,0,5.128-5.127l.108-.431.11.431a7.047,7.047,0,0,0,5.127,5.127Z" transform="translate(6.377 7.424)" fill="#9f7eed"/><path d="M-344,1241.988l.355.09-.355.09a5.8,5.8,0,0,0-4.222,4.219l-.089.356-.089-.356a5.8,5.8,0,0,0-4.22-4.219l-.356-.09.356-.09a5.805,5.805,0,0,0,4.22-4.221l.089-.355.089.355a5.808,5.808,0,0,0,4.222,4.221Z" transform="translate(6.049 3.324)" fill="#9f7eed"/><path d="M-347.958,1253.035s.039,4.831-2.369,7.975a6.271,6.271,0,0,1-3.192,2.5s5.286-6.1,2.622-17.072c-2.786-11.473-19.106-25.3-19.106-25.3s1.535,7.493-7.512,15.809c-5.081,4.67-13.871,12.14-15.08,21.318a21.753,21.753,0,0,0,6.558,18.587c-.05-.536-.08-1.079-.08-1.629a17.352,17.352,0,0,1,17.351-17.35,17.351,17.351,0,0,1,17.351,17.35,17.52,17.52,0,0,1-.151,2.255,20.963,20.963,0,0,0,6.151-12.5C-344.433,1257.158-347.958,1253.035-347.958,1253.035Z" transform="translate(0.443 1.032)" fill="#5e42a6"/><circle cx="17.35" cy="17.35" r="17.35" transform="translate(-385.878 1293.391) rotate(-89.318)" fill="#ffbe1b"/><path d="M-369.794,1255.846a17.285,17.285,0,0,1,11.342,4.224,16.265,16.265,0,0,0,.413-4.574c-.807-15.54-15.357-20.014-15.357-20.014s3.744,5.791.48,10.07c-3.507,4.6-9.114,6.152-11.742,12.684a10.626,10.626,0,0,0-.475,6.852A17.343,17.343,0,0,1-369.794,1255.846Z" transform="translate(1.471 3.052)" fill="#9f7eed"/><circle cx="17.35" cy="17.35" r="17.35" transform="translate(-385.878 1293.391) rotate(-89.318)" fill="#9f7eed"/><path d="M-357.1,1270.15a13.024,13.024,0,0,1-13.023,13.023,13.024,13.024,0,0,1-13.024-13.023,13.025,13.025,0,0,1,13.024-13.026A13.024,13.024,0,0,1-357.1,1270.15Z" transform="translate(1.801 6.099)" fill="#5e42a6"/><path d="M-375.258,1226.945s-.176,1.418-.245,1.748c-1.4,6.721-8.028,9.851-12.6,14.178a19.79,19.79,0,0,0-3.45,4.225,22.78,22.78,0,0,0-2.917,9.63c-.049.535-.13,1.7-.13,1.7s-.451-1.094-.616-1.624a17.016,17.016,0,0,1-.1-9.484c2.2-8.07,10.105-11.119,15.98-16A43.565,43.565,0,0,0-375.258,1226.945Z" transform="translate(0 1.85)" fill="#5e42a6"/><path d="M-370.8,1261.97l-7.5,7.5,7.5,7.5,7.5-7.5Zm.3,4.62,2.876,2.876-2.876,2.876Zm-.6,5.752-2.876-2.876,2.876-2.876Zm.6.85,3.725-3.726-3.725-3.725v-2.621l6.345,6.346-6.345,6.346Zm-.6-10.072v2.62l-3.726,3.726,3.726,3.726v2.62l-6.346-6.346Z" transform="translate(2.484 6.781)" fill="#fff"/></g></svg>