<svg xmlns="http://www.w3.org/2000/svg" width="80.939" height="80" viewBox="0 0 80.939 80"><g transform="translate(466.164 -1122.643)"><path d="M-396.908,1158.185l.488.123-.488.121a7.986,7.986,0,0,0-5.8,5.8l-.122.487-.122-.487a7.987,7.987,0,0,0-5.8-5.8l-.487-.121.487-.123a7.98,7.98,0,0,0,5.8-5.8l.122-.487.122.487a7.979,7.979,0,0,0,5.8,5.8Z" transform="translate(11.195 5.754)" fill="#9f7eed"/><path d="M-408.842,1153.933l.285.072-.285.071a4.658,4.658,0,0,0-3.388,3.388l-.072.286-.071-.286a4.664,4.664,0,0,0-3.389-3.388l-.285-.071.285-.072a4.665,4.665,0,0,0,3.389-3.389l.071-.285.072.285a4.66,4.66,0,0,0,3.388,3.389Z" transform="translate(9.858 5.432)" fill="#9f7eed"/><path d="M-445.56,1130.143l.58.148-.58.146a9.517,9.517,0,0,0-6.92,6.916l-.145.583-.147-.583a9.512,9.512,0,0,0-6.918-6.916l-.58-.146.58-.148a9.514,9.514,0,0,0,6.918-6.918l.147-.582.145.582a9.519,9.519,0,0,0,6.92,6.918Z" transform="translate(1.159 0)" fill="#9f7eed"/><path d="M-443.691,1182.413l.5.125-.5.128a8.194,8.194,0,0,0-5.958,5.952l-.123.5-.126-.5a8.182,8.182,0,0,0-5.956-5.952l-.5-.128.5-.125a8.192,8.192,0,0,0,5.956-5.956l.126-.5.123.5a8.2,8.2,0,0,0,5.958,5.956Z" transform="translate(1.93 10.486)" fill="#9f7eed"/><path d="M-453.881,1186.2l.326.083-.326.081a5.351,5.351,0,0,0-3.889,3.887l-.079.327-.084-.327a5.344,5.344,0,0,0-3.887-3.887l-.326-.081.326-.083a5.346,5.346,0,0,0,3.887-3.887l.084-.327.079.327a5.353,5.353,0,0,0,3.889,3.887Z" transform="translate(0.791 11.673)" fill="#9f7eed"/><path d="M-413.295,1160.919a20.962,20.962,0,0,1-20.965,20.96,20.961,20.961,0,0,1-20.961-20.96,20.961,20.961,0,0,1,20.961-20.963A20.963,20.963,0,0,1-413.295,1160.919Z" transform="translate(2.152 3.405)" fill="#9f7eed"/><path d="M-419.382,1160.059a15.735,15.735,0,0,1-15.735,15.734,15.735,15.735,0,0,1-15.735-15.734,15.735,15.735,0,0,1,15.735-15.735A15.735,15.735,0,0,1-419.382,1160.059Z" transform="translate(3.012 4.264)" fill="#5e42a6"/><path d="M-432.105,1129.823a4.81,4.81,0,0,1-4.809,4.81,4.809,4.809,0,0,1-4.808-4.81,4.809,4.809,0,0,1,4.808-4.809A4.81,4.81,0,0,1-432.105,1129.823Z" transform="translate(4.807 0.466)" fill="#9f7eed"/><path d="M-456.545,1172.154a4.81,4.81,0,0,1-4.809,4.81,4.81,4.81,0,0,1-4.81-4.81,4.809,4.809,0,0,1,4.81-4.808A4.809,4.809,0,0,1-456.545,1172.154Z" transform="translate(0 8.793)" fill="#9f7eed"/><path d="M-407.665,1172.154a4.809,4.809,0,0,1-4.808,4.81,4.81,4.81,0,0,1-4.809-4.81,4.809,4.809,0,0,1,4.809-4.808A4.808,4.808,0,0,1-407.665,1172.154Z" transform="translate(9.615 8.793)" fill="#9f7eed"/><path d="M-432.1,1186.266a4.811,4.811,0,0,1-4.81,4.809,4.809,4.809,0,0,1-4.808-4.809,4.809,4.809,0,0,1,4.808-4.809A4.81,4.81,0,0,1-432.1,1186.266Z" transform="translate(4.808 11.568)" fill="#5e42a6"/><path d="M-456.545,1143.935a4.81,4.81,0,0,1-4.809,4.808,4.81,4.81,0,0,1-4.81-4.808,4.81,4.81,0,0,1,4.81-4.809A4.81,4.81,0,0,1-456.545,1143.935Z" transform="translate(0 3.242)" fill="#5e42a6"/><path d="M-407.665,1143.935a4.809,4.809,0,0,1-4.808,4.808,4.81,4.81,0,0,1-4.809-4.808,4.81,4.81,0,0,1,4.809-4.809A4.809,4.809,0,0,1-407.665,1143.935Z" transform="translate(9.615 3.242)" fill="#5e42a6"/><path d="M-436.143,1149.534l-9.5,9.5,9.5,9.5,9.5-9.5Zm.381,5.855,3.644,3.645-3.644,3.645Zm-.761,7.29-3.645-3.645,3.645-3.645Zm.761,1.077,4.721-4.722-4.721-4.722v-3.321l8.042,8.043-8.042,8.043Zm-.761-12.765v3.321l-4.721,4.722,4.721,4.722v3.321l-8.043-8.043Z" transform="translate(4.036 5.289)" fill="#fff"/></g></svg>