<svg xmlns="http://www.w3.org/2000/svg" width="78.237" height="80" viewBox="0 0 78.237 80"><g transform="translate(360.635 -1128.154)"><path d="M-294.322,1134.695l.467.116-.467.117a7.643,7.643,0,0,0-5.555,5.553l-.117.467-.115-.467a7.646,7.646,0,0,0-5.556-5.553l-.466-.117.466-.116a7.648,7.648,0,0,0,5.556-5.554l.115-.468.117.468a7.644,7.644,0,0,0,5.555,5.554Z" transform="translate(5.246 0.05)" fill="#9f7eed"/><path d="M-350.463,1159.083l.4.1-.4.1a6.586,6.586,0,0,0-4.784,4.785l-.1.4-.1-.4a6.583,6.583,0,0,0-4.785-4.785l-.4-.1.4-.1a6.586,6.586,0,0,0,4.785-4.785l.1-.4.1.4a6.588,6.588,0,0,0,4.784,4.785Z" transform="translate(0 2.478)" fill="#5e42a6"/><path d="M-307.33,1132.048l.3.076-.3.077a4.943,4.943,0,0,0-3.592,3.59l-.076.3-.075-.3a4.942,4.942,0,0,0-3.594-3.59l-.3-.077.3-.076a4.94,4.94,0,0,0,3.594-3.59l.075-.3.076.3a4.941,4.941,0,0,0,3.592,3.59Z" transform="translate(4.395)" fill="#9f7eed"/><path d="M-350.549,1168l.216.053-.216.055a3.5,3.5,0,0,0-2.547,2.547l-.054.214-.054-.214a3.5,3.5,0,0,0-2.549-2.547l-.213-.055.213-.053a3.507,3.507,0,0,0,2.549-2.548l.054-.215.054.215a3.508,3.508,0,0,0,2.547,2.548Z" transform="translate(0.449 3.569)" fill="#9f7eed"/><path d="M-316.663,1194.8l.571.144-.571.146a9.331,9.331,0,0,0-6.787,6.783l-.14.57-.144-.57a9.327,9.327,0,0,0-6.788-6.783l-.567-.146.567-.144a9.33,9.33,0,0,0,6.788-6.785l.144-.57.14.57a9.334,9.334,0,0,0,6.787,6.785Z" transform="translate(2.844 5.707)" fill="#5e42a6"/><path d="M-341.984,1184.755a2.978,2.978,0,0,0,2.977,2.954h4.66a2.978,2.978,0,0,0,2.979-2.954Z" transform="translate(1.795 5.448)" fill="#9f7eed"/><path d="M-319.6,1184.755a2.977,2.977,0,0,0,2.976,2.954h4.661a2.978,2.978,0,0,0,2.977-2.954Z" transform="translate(3.95 5.448)" fill="#9f7eed"/><path d="M-298.525,1180.191v-5.662a1.368,1.368,0,0,1,1.151-1.35v-12.733a1.367,1.367,0,0,1-1.151-1.35v-5.663a1.369,1.369,0,0,1,1.151-1.35v-8.609a4.913,4.913,0,0,0-4.913-4.912h-41.891a4.913,4.913,0,0,0-4.912,4.912v40.811a4.913,4.913,0,0,0,4.912,4.915h41.891a4.914,4.914,0,0,0,4.913-4.915v-2.744A1.37,1.37,0,0,1-298.525,1180.191Z" transform="translate(1.111 1.002)" fill="#312450"/><path d="M-306.253,1184.424h-34.733a4.092,4.092,0,0,1-4.091-4.092v-33.67a4.092,4.092,0,0,1,4.091-4.092h34.733a4.093,4.093,0,0,1,4.092,4.092v33.67a4.093,4.093,0,0,1-4.092,4.092Z" transform="translate(1.497 1.387)" fill="#9f7eed"/><path d="M-309.818,1156.579h-13.361a2.342,2.342,0,0,0-.478.052,8.283,8.283,0,0,1-1.438,1.722v.528a1.785,1.785,0,0,0,1.916,1.615h13.361a1.787,1.787,0,0,0,1.917-1.615v-.686A1.786,1.786,0,0,0-309.818,1156.579Z" transform="translate(3.421 2.736)" fill="#ddd"/><path d="M-321.187,1153.359a8.242,8.242,0,0,1-8.243,8.24,8.24,8.24,0,0,1-8.239-8.24,8.24,8.24,0,0,1,8.239-8.241A8.242,8.242,0,0,1-321.187,1153.359Z" transform="translate(2.21 1.633)" fill="#ffbe1b"/><path d="M-309.949,1153h-12.59a8.183,8.183,0,0,1-1.189,3.877,2.285,2.285,0,0,0,.419.041h13.361a1.787,1.787,0,0,0,1.917-1.617v-.686A1.787,1.787,0,0,0-309.949,1153Z" transform="translate(3.552 2.392)" fill="#e2e2e2"/><path d="M-309.985,1149.431h-13.366a8.205,8.205,0,0,1,.786,3.513c0,.135,0,.27-.011.4h12.59a1.787,1.787,0,0,0,1.917-1.617v-.685A1.787,1.787,0,0,0-309.985,1149.431Z" transform="translate(3.589 2.048)" fill="#f4f4f4"/><path d="M-325.1,1179.476v-.685a1.785,1.785,0,0,1,1.917-1.615h13.361a1.786,1.786,0,0,1,1.917,1.615v.685a1.787,1.787,0,0,1-1.917,1.617h-13.361a1.786,1.786,0,0,1-1.917-1.617Z" transform="translate(3.421 4.719)" fill="#ddd"/><path d="M-325.1,1175.9v-.687a1.786,1.786,0,0,1,1.917-1.616h13.361a1.787,1.787,0,0,1,1.917,1.616v.688a1.787,1.787,0,0,1-1.917,1.616h-13.361a1.786,1.786,0,0,1-1.917-1.616Z" transform="translate(3.421 4.374)" fill="#e2e2e2"/><path d="M-325.1,1172.33v-.687a1.786,1.786,0,0,1,1.917-1.615h13.361a1.787,1.787,0,0,1,1.917,1.615v.688a1.787,1.787,0,0,1-1.917,1.615h-13.361a1.786,1.786,0,0,1-1.917-1.615Z" transform="translate(3.421 4.03)" fill="#f4f4f4"/><path d="M-341.468,1179.476v-.685a1.785,1.785,0,0,1,1.916-1.615h13.361a1.785,1.785,0,0,1,1.917,1.615v.685a1.786,1.786,0,0,1-1.917,1.617h-13.361a1.786,1.786,0,0,1-1.916-1.617Z" transform="translate(1.845 4.719)" fill="#e2e2e2"/><path d="M-341.468,1175.9v-.687a1.786,1.786,0,0,1,1.916-1.616h13.361a1.786,1.786,0,0,1,1.917,1.616v.688a1.786,1.786,0,0,1-1.917,1.616h-13.361a1.786,1.786,0,0,1-1.916-1.616Z" transform="translate(1.845 4.374)" fill="#f4f4f4"/><path d="M-321.187,1153.359a8.242,8.242,0,0,1-8.243,8.24,8.24,8.24,0,0,1-8.239-8.24,8.24,8.24,0,0,1,8.239-8.241A8.242,8.242,0,0,1-321.187,1153.359Z" transform="translate(2.21 1.633)" fill="#fff"/><path d="M-323.424,1153.179a6.185,6.185,0,0,1-6.186,6.184,6.186,6.186,0,0,1-6.186-6.184,6.186,6.186,0,0,1,6.186-6.186A6.186,6.186,0,0,1-323.424,1153.179Z" transform="translate(2.391 1.813)" fill="#5e42a6"/><rect width="42.917" height="4.14" transform="translate(-343.58 1163.349)" fill="#312450"/><path d="M-300.526,1159.279h-1.07a1.369,1.369,0,0,1-1.369-1.368v-5.663a1.368,1.368,0,0,1,1.369-1.368h1.07a1.368,1.368,0,0,1,1.369,1.368v5.663a1.369,1.369,0,0,1-1.369,1.368Z" transform="translate(5.551 2.187)" fill="#9f7eed"/><path d="M-300.526,1178.522h-1.07a1.368,1.368,0,0,1-1.369-1.369v-5.662a1.369,1.369,0,0,1,1.369-1.368h1.07a1.369,1.369,0,0,1,1.369,1.368v5.662a1.368,1.368,0,0,1-1.369,1.369Z" transform="translate(5.551 4.04)" fill="#9f7eed"/><path d="M-291.4,1185.064V1142.4a1.115,1.115,0,0,1,.988-1.106v-.014l-7.027,1.328a2.467,2.467,0,0,0-2.009,2.424v37.4a2.467,2.467,0,0,0,2.009,2.424l7.027,1.328v-.013A1.116,1.116,0,0,1-291.4,1185.064Z" transform="translate(5.889 1.264)" fill="#312450"/><path d="M-290.112,1186.183h-.877a1.119,1.119,0,0,1-1.118-1.119V1142.4a1.12,1.12,0,0,1,1.118-1.12h.877a1.12,1.12,0,0,1,1.118,1.12v42.662a1.119,1.119,0,0,1-1.118,1.119Z" transform="translate(6.596 1.264)" fill="#9f7eed"/><path d="M-329.8,1148.957l-4.032,4.032,4.032,4.032,4.032-4.032Zm.161,2.485,1.547,1.547-1.547,1.547Zm-.322,3.094-1.547-1.547,1.547-1.547Zm.322.457,2-2-2-2v-1.409l3.414,3.413-3.414,3.414Zm-.322-5.417v1.409l-2,2,2,2v1.41l-3.414-3.414Z" transform="translate(2.58 2.002)" fill="#fff"/></g></svg>