<svg xmlns="http://www.w3.org/2000/svg" width="122" height="122" viewBox="0 0 122 122"><g transform="translate(-1589 -1643)"><circle cx="61" cy="61" r="61" transform="translate(1589 1643)" fill="#5e42a6"/><g transform="translate(1627.004 1684)"><path d="M8.424.2.04,17.807a.341.341,0,0,0,.073.4L22.757,39.9a.345.345,0,0,0,.478,0l22.644-21.7a.341.341,0,0,0,.073-.4L37.568.2a.339.339,0,0,0-.309-.2H8.736a.339.339,0,0,0-.312.2h0Z" fill="#fff" fill-rule="evenodd"/><path d="M81.325,54.4h0c-.163.012-1,.062-2.876.062-1.49,0-2.548-.045-2.919-.062h0c-5.759-.253-10.057-1.256-10.057-2.456s4.3-2.2,10.057-2.459V53.4c.377.027,1.455.091,2.945.091,1.788,0,2.684-.075,2.845-.089V49.484c5.747.256,10.036,1.259,10.036,2.456s-4.288,2.2-10.036,2.455h0Zm0-5.317v-3.5h8.02V40.23H67.51v5.344h8.018v3.5c-6.517.3-11.419,1.59-11.419,3.137s4.9,2.837,11.419,3.137v11.23h5.8V55.348c6.5-.3,11.4-1.589,11.4-3.135s-4.889-2.835-11.4-3.136h0Zm0,0Z" transform="translate(-55.42 -34.78)" fill="#5e42a6" fill-rule="evenodd"/></g></g></svg>