<svg xmlns="http://www.w3.org/2000/svg" width="80" height="80" viewBox="0 0 80 80"><g transform="translate(-1353.428 -636.59)"><circle cx="40" cy="40" r="40" transform="translate(1353.428 636.59)" fill="#5e42a6"/><g transform="translate(1379.235 663.475)"><g transform="translate(0 0)"><path d="M1404.649,696.5a1.912,1.912,0,0,0,1.8,2.014h.114a1.911,1.911,0,1,0-1.915-2.014Z" transform="translate(-1396.868 -683.475)" fill="#fff"/><path d="M1393.436,696.694a.618.618,0,1,0,.582.651.614.614,0,0,0-.582-.651Z" transform="translate(-1392.784 -684.166)" fill="#fff"/><path d="M1403.995,679.909a.619.619,0,1,0-.56-1.1.619.619,0,0,0,.56,1.1Z" transform="translate(-1396.335 -677.985)" fill="#fff"/><path d="M1406.7,684.736a.953.953,0,1,0-1.279-.424A.955.955,0,0,0,1406.7,684.736Z" transform="translate(-1397.099 -679.429)" fill="#fff"/><path d="M1397.283,688.469a.787.787,0,1,0-.227-1.09h0A.784.784,0,0,0,1397.283,688.469Z" transform="translate(-1394.21 -680.838)" fill="#fff"/><path d="M1398.708,696.175a.955.955,0,1,0,.9,1.007h0A.955.955,0,0,0,1398.708,696.175Z" transform="translate(-1394.476 -683.987)" fill="#fff"/><path d="M1397.406,705.909a.789.789,0,1,0,1.06.348h0a.792.792,0,0,0-1.06-.348Z" transform="translate(-1394.226 -687.31)" fill="#fff"/><path d="M1403.021,692.081a1.121,1.121,0,1,0-.325-1.551,1.114,1.114,0,0,0,.325,1.551Z" transform="translate(-1396.133 -681.868)" fill="#fff"/><path d="M1421.011,684.648a.956.956,0,1,0-.273-1.325h0a.945.945,0,0,0,.273,1.325Z" transform="translate(-1402.352 -679.416)" fill="#fff"/><path d="M1424.071,679.833a.618.618,0,1,0-.182-.863.638.638,0,0,0,.182.863Z" transform="translate(-1403.459 -677.97)" fill="#fff"/><path d="M1420.4,694.662a1.91,1.91,0,1,0-.212,3.814h.106a1.909,1.909,0,0,0,.106-3.814Z" transform="translate(-1401.596 -683.466)" fill="#fff"/><path d="M1408.272,691.5a1.912,1.912,0,1,0,.847-2.573,1.915,1.915,0,0,0-.847,2.573Z" transform="translate(-1398.045 -681.42)" fill="#fff"/><path d="M1430.62,688.446a.787.787,0,1,0-1.067-.348.8.8,0,0,0,1.067.348Z" transform="translate(-1405.414 -680.815)" fill="#fff"/><path d="M1423.511,690.089a1.122,1.122,0,1,0,1.506.5A1.122,1.122,0,0,0,1423.511,690.089Z" transform="translate(-1403.149 -681.852)" fill="#fff"/><path d="M1413.923,679.165a.788.788,0,1,0-.742-.84.8.8,0,0,0,.742.84Z" transform="translate(-1399.805 -677.589)" fill="#fff"/><path d="M1413.744,686.353a1.122,1.122,0,1,0-1.06-1.181,1.114,1.114,0,0,0,1.06,1.181Z" transform="translate(-1399.635 -679.834)" fill="#fff"/><path d="M1404.167,703.913a1.122,1.122,0,1,0-1.507-.5A1.123,1.123,0,0,0,1404.167,703.913Z" transform="translate(-1396.143 -685.92)" fill="#fff"/><path d="M1415.245,689.582a1.911,1.911,0,1,0,1.6-.863A1.905,1.905,0,0,0,1415.245,689.582Z" transform="translate(-1400.409 -681.421)" fill="#fff"/><path d="M1418.577,701.671a1.911,1.911,0,1,0-.848,2.566h0a1.9,1.9,0,0,0,.855-2.551C1418.584,701.679,1418.584,701.679,1418.577,701.671Z" transform="translate(-1400.417 -685.517)" fill="#fff"/><path d="M1424.656,701.92a1.121,1.121,0,1,0,.325,1.551,1.113,1.113,0,0,0-.325-1.551Z" transform="translate(-1403.159 -685.902)" fill="#fff"/><path d="M1430.152,697.112a.955.955,0,1,0-1.007.9h0A.96.96,0,0,0,1430.152,697.112Z" transform="translate(-1404.991 -683.963)" fill="#fff"/><path d="M1434.84,696.6a.618.618,0,1,0,.583.651A.622.622,0,0,0,1434.84,696.6Z" transform="translate(-1407.038 -684.134)" fill="#fff"/><path d="M1430.746,705.886a.787.787,0,1,0,.227,1.09.783.783,0,0,0-.227-1.09Z" transform="translate(-1405.434 -687.287)" fill="#fff"/><path d="M1404.125,714.695a.617.617,0,1,0,.174.856h0A.608.608,0,0,0,1404.125,714.695Z" transform="translate(-1396.359 -690.328)" fill="#fff"/><path d="M1424.213,714.62a.619.619,0,1,0,.56,1.1.619.619,0,0,0-.56-1.1Z" transform="translate(-1403.487 -690.314)" fill="#fff"/><path d="M1411.6,703.59a1.914,1.914,0,1,0-2.649.552,1.919,1.919,0,0,0,2.649-.552Z" transform="translate(-1398.051 -685.521)" fill="#fff"/><path d="M1406.841,709.53a.956.956,0,1,0,.272,1.325h0A.947.947,0,0,0,1406.841,709.53Z" transform="translate(-1397.113 -688.532)" fill="#fff"/><path d="M1413.979,715.186a.789.789,0,1,0,.742.84.8.8,0,0,0-.742-.84Z" transform="translate(-1399.793 -690.532)" fill="#fff"/><path d="M1413.807,707.649a1.122,1.122,0,1,0,1.06,1.18,1.115,1.115,0,0,0-1.06-1.18Z" transform="translate(-1399.614 -687.937)" fill="#fff"/><path d="M1421.161,709.441a.956.956,0,1,0,1.294.424.966.966,0,0,0-1.294-.424Z" transform="translate(-1402.373 -688.519)" fill="#fff"/></g></g></g></svg>