<svg xmlns="http://www.w3.org/2000/svg" width="80" height="80" viewBox="0 0 80 80"><g transform="translate(-476.992 -636.59)"><circle cx="40" cy="40" r="40" transform="translate(476.992 636.59)" fill="#5e42a6"/><path d="M537.591,693.684a1.374,1.374,0,0,1,2.6,0l4.486,7.875c.721,1.246.131,2.26-1.312,2.26h-9.036c-1.424,0-2.014-1.015-1.311-2.26Zm-8.678-15.161c.721-1.246,1.866-1.246,2.587,0l1,1.8,2.361,4.142a4.3,4.3,0,0,1,0,3.749l-7.911,13.7a4.159,4.159,0,0,1-3.243,1.9h-6.565c-1.443,0-2.033-1-1.311-2.26Z" transform="translate(-13.264 -14.114)" fill="#fff"/></g></svg>