<svg xmlns="http://www.w3.org/2000/svg" width="80" height="80" viewBox="0 0 80 80"><g transform="translate(-476.814 -206.802)"><circle cx="40" cy="40" r="40" transform="translate(476.815 206.803)" fill="#5e42a6"/><path d="M535.981,263.018l2.972,2.971-8.041,8.043-8.044-8.042,2.972-2.972,5.072,5.1,5.07-5.1Zm5.072-5.071,3,2.971-2.97,2.971-2.972-2.971Zm-10.142,0,2.971,2.945-2.971,2.97-2.971-2.946,2.971-2.968Zm-10.144,0,2.947,2.971-2.945,2.944-2.973-2.944ZM530.912,247.8l8.043,8.018-2.972,2.97-5.071-5.071-5.07,5.1-2.972-2.97,8.043-8.042Z" transform="translate(-14.108 -14.115)" fill="#fff"/></g></svg>