<svg xmlns="http://www.w3.org/2000/svg" width="80" height="80" viewBox="0 0 80 80"><g transform="translate(-1034.244 -206.802)"><circle cx="40" cy="40" r="40" transform="translate(1034.243 206.803)" fill="#5e42a6"/><g transform="translate(1060.098 233.688)"><path d="M1073.969,260.013a1.062,1.062,0,0,0,.754.192l6.92.005a.891.891,0,0,1,.6.481c.319.543.641,1.085,1,1.694.216-.849.41-1.616.606-2.384l.152-.611h0l.244-.984h0a7.914,7.914,0,0,0,.318-1.22,5.341,5.341,0,0,0,.242-.911h0l.266-1,.221-.837q.08-.3.158-.61l.164-.687h0c.033-.119.07-.237.1-.357a1.294,1.294,0,0,1,.534-.93h0c.661-.133.986.061,1.138.681l.372,2.588q.12.916.24,1.831a12.345,12.345,0,0,0,.205,1.375c.064.792.184,1.577.323,2.359h0c.073.576.141,1.153.22,1.729.15,1.09.3,2.178.457,3.267l.052,0q.537-2.08,1.075-4.161h0l.413-1.67h0a6.821,6.821,0,0,0,.31-1.195h0c.215-.479.188-1.04.507-1.483h0a.807.807,0,0,1,1.32.287c.1.161.2.32.3.48.395.677.8,1.35,1.178,2.034a.417.417,0,0,0,.43.229c.712-.009,1.424,0,2.136,0q.621,0,1.242-.01c.512,0,1.025.007,1.537-.015h0a7.5,7.5,0,0,0,1.572-.014h0a.745.745,0,0,0,.586-1.116c-.2-.388-.443-.751-.667-1.125a8.719,8.719,0,0,0-.635-1.119l-1.146-1.982h0l-2.168-3.751c-.495-.866-.976-1.739-1.49-2.593a1.341,1.341,0,0,0-1.178-.66c-1.179-.009-2.358,0-3.537,0a2.423,2.423,0,0,0-.66,0h-5.215l-1.239,0c-.034,0-.069,0-.1,0l-2.769-.009a.362.362,0,0,0-.252.064,1.048,1.048,0,0,0-.772.427,5.89,5.89,0,0,0-.765,1.25,2.1,2.1,0,0,0-.361.615l-.307.533a3.16,3.16,0,0,0-.388.685l-.59.993-.391.688h0l-.561.984a3.977,3.977,0,0,0-.438.766,2.418,2.418,0,0,0-.4.683h0a17.975,17.975,0,0,0-1.056,1.834c-.339.574-.691,1.14-1.01,1.723A.741.741,0,0,0,1073.969,260.013Z" transform="translate(-1073.671 -247.802)" fill="#fff"/><path d="M1101.2,266.062c-1.049-.015-2.1,0-3.149.009h-2.746c-.113-.006-.228-.016-.34-.016-1.483.013-1.275.019-1.97-1.146-.2-.336-.4-.67-.635-1.056l-.4,1.616-.378,1.443h0l-.5,1.982h0a6.958,6.958,0,0,0-.347,1.376,6.161,6.161,0,0,0-.314,1.215h0a2.83,2.83,0,0,0-.24.917h0a4.633,4.633,0,0,0-.242.909h0c-.039.119-.083.236-.116.357-.146.54-.464.829-.866.785-.439-.048-.679-.361-.749-.908-.085-.662-.2-1.32-.3-1.98-.027-.247-.047-.5-.083-.742-.127-.871-.2-1.75-.382-2.612-.077-.631-.144-1.264-.232-1.894-.114-.823-.245-1.643-.369-2.465q-.207-1.636-.414-3.272l-.095-.006q-.358,1.456-.715,2.911h0c-.09.313-.192.624-.268.941-.184.781-.445,1.544-.577,2.338a15.523,15.523,0,0,0-.459,1.69,1.319,1.319,0,0,1-.4.742h0a.883.883,0,0,1-1.193-.379q-.739-1.284-1.476-2.567a.34.34,0,0,0-.33-.2c-1.333.012-2.665.015-4,.02h0c-.831,0-1.663-.012-2.494-.012a.666.666,0,0,0-.629.4.7.7,0,0,0-.006.777c.169.3.356.6.536.9a1.774,1.774,0,0,0,.318.534l.151.3.414.694h0a12.856,12.856,0,0,0,.835,1.449,15.194,15.194,0,0,0,.837,1.448c.354.641.7,1.288,1.106,1.9a20.453,20.453,0,0,0,1.144,1.983,11,11,0,0,0,.767,1.337,1.37,1.37,0,0,0,1.186.639c.368.01.736-.005,1.1-.009h12.283a1.4,1.4,0,0,0,1.325-.708c.181-.284.334-.586.5-.88a2.31,2.31,0,0,0,.321-.583,4.5,4.5,0,0,0,.535-.923h0a8.962,8.962,0,0,0,.625-1.073h0l.721-1.237h0c.333-.54.666-1.079.944-1.649a8.437,8.437,0,0,0,.679-1.166l.225-.383.307-.531.753-1.3c.154-.26.325-.511.459-.781A.76.76,0,0,0,1101.2,266.062Zm-24.21.057a.157.157,0,0,1-.077-.046A.389.389,0,0,0,1076.995,266.119Z" transform="translate(-1073.672 -252.2)" fill="#fff"/></g></g></svg>