<svg xmlns="http://www.w3.org/2000/svg" width="80" height="80" viewBox="0 0 80 80"><g transform="translate(-1353.428 -206.802)"><circle cx="40" cy="40" r="40" transform="translate(1353.428 206.803)" fill="#5e42a6"/><g transform="translate(1376.693 233.688)"><path d="M1394.345,278.164a1.1,1.1,0,0,1,.774-.32h26.709a.547.547,0,0,1,.387.934l-5.276,5.276a1.1,1.1,0,0,1-.775.32h-26.709a.547.547,0,0,1-.387-.934Z" transform="translate(-1388.908 -258.145)" fill="#fff"/><path d="M1394.345,248.122a1.125,1.125,0,0,1,.774-.319h26.709a.547.547,0,0,1,.387.934l-5.276,5.276a1.1,1.1,0,0,1-.775.32h-26.709a.547.547,0,0,1-.387-.934Z" transform="translate(-1388.908 -247.803)" fill="#fff"/><path d="M1416.939,263.143a1.1,1.1,0,0,0-.775-.32h-26.709a.547.547,0,0,0-.387.934l5.276,5.276a1.1,1.1,0,0,0,.774.32h26.709a.547.547,0,0,0,.387-.934Z" transform="translate(-1388.908 -252.974)" fill="#fff"/></g></g></svg>