<svg xmlns="http://www.w3.org/2000/svg" width="675.552" height="210.238" viewBox="0 0 675.552 210.238"><g transform="translate(-899 -217.762)"><g transform="translate(793.016 -88.502)"><path d="M445.045,306.567s26.534,37.851,39.942,55.585c4.86,6.428,3.816,6.541,8.577.262,13.511-17.819,40.387-55.846,40.387-55.846h37.9s-40.673,56.412-58.558,80.474c-1.675,2.254-1.474,3.694.2,5.922,18.818,25.1,56.217,79.924,56.217,79.924H534.106s-27.879-39.2-41.8-57.655c-2.914-3.861-2.906-3.9-5.95.146-13.751,18.276-41.2,57.509-41.2,57.509H409.064s29.654-41.508,44.479-60.562c5.226-6.718,10.343-13.523,15.681-20.151,1.438-1.788,1.232-2.927-.051-4.581Q449.318,362,429.567,336.323c-7.062-9.154-21.172-29.756-21.172-29.756Z" transform="translate(57.017 0.057)" fill="#fff"/><path d="M584.506,389.48q.007-37.952.007-75.9c0-6.764.292-7.04,7.141-7.04,32.942,0,99.614,0,99.614,0v27.547s-48.787-.063-73.208-.063c-5.428,0-5.441,0-5.447,5.535q-.016,15.257,0,30.515c.01,5.2.037,5.2,5.395,5.2,20.223,0,60.808-.065,60.808-.065v27.628s-40.053-.065-60.148-.058c-6,0-6.03.007-6.042,5.841q-.034,15.639-.007,31.277c.007,5.213.22,5.431,5.326,5.432,24.166.007,73.322,0,73.322,0v27.569s-67.6.026-101.818,0c-3.947,0,1.015,0-4.941,0-.024-19.707-.01-45.4-.01-65.1Q584.5,398.634,584.506,389.48Z" transform="translate(90.268 0.051)" fill="#fff"/><path d="M405.113,472.944s-34.7-74.022-52.043-108.615c-9.538-19.054-19.054-38.13-29.011-58.064-4.285,8.615-8.2,16.571-12.175,24.505-23.033,46.108-69.164,142.175-69.164,142.175H276.1s8.439-21.144,12.461-30.177c1.23-2.769,2.659-3.978,5.891-3.955,19.977.175,39.955.131,59.911.021a5.294,5.294,0,0,1,5.384,3.143c5.011,9.274,15.319,30.968,15.319,30.968Zm-98.371-64.637,17.274-40.066,20.022,39.494Z" transform="translate(25.734)" fill="#fff"/><path d="M136.617,444.545c10.428,0,20.932.792,31.27-.178,17.037-1.6,29.287-11.381,37.952-25.658,18.021-29.7,4.809-61.561-17.333-76.526-8.863-5.989-18.767-7.978-29.3-7.912-17.3.109-52.771.1-52.771.1V306.479s36.406-.53,54.561.264c49.818,2.177,89.569,47.4,79.049,98.9-5.488,26.87-21.569,46.207-46.231,58.423a87.724,87.724,0,0,1-40.173,8.867c-15.263-.1-47.207,0-47.207,0v-28.4s20.518.1,30.185.1Z" transform="translate(0 0.008)" fill="#fff"/></g><text transform="translate(899 424)" fill="#fff" font-size="17" font-family="Arial-BoldMT, Arial" font-weight="700" letter-spacing="0.134em"><tspan x="0" y="0">THE FIRST MULTI-CHAIN CERTIFICATE OF DEPOSIT</tspan></text></g></svg>