<svg xmlns="http://www.w3.org/2000/svg" width="137.426" height="40" viewBox="0 0 137.426 40"><g transform="translate(-978.122 -416.987)"><g transform="translate(1034.548 426.809)"><path d="M1165.442,435.124s3.184,4.541,4.792,6.669c.583.771.458.785,1.029.031,1.621-2.138,4.846-6.7,4.846-6.7h4.548s-4.88,6.769-7.026,9.655a.5.5,0,0,0,.024.71c2.258,3.012,6.745,9.59,6.745,9.59h-4.272s-3.345-4.7-5.016-6.918c-.35-.463-.349-.468-.714.017-1.65,2.193-4.943,6.9-4.943,6.9h-4.33s3.558-4.981,5.336-7.266c.627-.806,1.241-1.623,1.882-2.418a.37.37,0,0,0-.006-.55q-2.382-3.071-4.752-6.151c-.847-1.1-2.541-3.57-2.541-3.57Z" transform="translate(-1117.973 -435.08)" fill="#fff"/><path d="M1207.225,445.068q0-4.554,0-9.107c0-.812.035-.845.857-.845h11.952v3.305s-5.854-.008-8.784-.008c-.651,0-.653,0-.653.664q0,1.83,0,3.661c0,.624,0,.623.647.623,2.427,0,7.3-.008,7.3-.008v3.315s-4.806-.008-7.217-.007c-.72,0-.723,0-.724.7q0,1.876,0,3.753c0,.625.027.652.639.652,2.9,0,8.8,0,8.8,0v3.308s-8.112,0-12.217,0h-.593c0-2.365,0-5.447,0-7.811Q1207.225,446.166,1207.225,445.068Z" transform="translate(-1139.034 -435.077)" fill="#fff"/><path d="M1137.083,455.043s-4.164-8.882-6.245-13.032c-1.144-2.286-2.286-4.575-3.48-6.967-.515,1.034-.984,1.989-1.461,2.94-2.764,5.532-8.3,17.059-8.3,17.059h4.005s1.013-2.537,1.5-3.621a.665.665,0,0,1,.707-.475c2.4.021,4.793.016,7.188,0a.635.635,0,0,1,.646.377c.6,1.112,1.838,3.716,1.838,3.716Zm-11.8-7.756,2.073-4.807,2.4,4.738Z" transform="translate(-1098.159 -435.044)" fill="#fff"/><path d="M1085.481,451.642c1.251,0,2.511.095,3.752-.022a5.864,5.864,0,0,0,4.553-3.078,6.747,6.747,0,0,0-2.079-9.182,6.006,6.006,0,0,0-3.516-.949c-2.076.013-6.331.012-6.331.012v-3.346s4.368-.064,6.546.032a9.98,9.98,0,0,1,9.485,11.866,9.744,9.744,0,0,1-5.547,7.01,10.524,10.524,0,0,1-4.82,1.064c-1.831-.012-5.664,0-5.664,0v-3.408s2.462.013,3.622.013Z" transform="translate(-1081.859 -435.049)" fill="#fff"/></g><path d="M998.122,416.987l-20,20,20,20,20-20Zm.8,12.327,7.673,7.673-7.673,7.674Zm-1.6,15.347-7.674-7.674,7.674-7.673Zm1.6,2.267,9.94-9.94-9.94-9.94v-6.992l16.931,16.931-16.931,16.932Zm-1.6-26.872v6.991l-9.94,9.94,9.94,9.941v6.991l-16.932-16.932Z" transform="translate(0 0)" fill="#fff"/></g></svg>